<svg width="28" height="28" viewBox="0 0 28 28" fill="none" xmlns="http://www.w3.org/2000/svg">
<path d="M23.2984 11.6666H4.63171V21C4.63171 24.5 5.79838 25.6666 9.29838 25.6666H18.6317C22.1317 25.6666 23.2984 24.5 23.2984 21V11.6666Z" stroke="#292D32" stroke-width="1.3" stroke-miterlimit="10" stroke-linecap="round" stroke-linejoin="round"/>
<path d="M25.0833 8.16671V9.33337C25.0833 10.6167 24.465 11.6667 22.75 11.6667H5.24996C3.46496 11.6667 2.91663 10.6167 2.91663 9.33337V8.16671C2.91663 6.88337 3.46496 5.83337 5.24996 5.83337H22.75C24.465 5.83337 25.0833 6.88337 25.0833 8.16671Z" fill="#FCAF17" stroke="#292D32" stroke-width="1.3" stroke-miterlimit="10" stroke-linecap="round" stroke-linejoin="round"/>
<path d="M13.58 5.83339H7.13995C6.74329 5.40172 6.75495 4.73672 7.17495 4.31672L8.83162 2.66005C9.26329 2.22839 9.97495 2.22839 10.4066 2.66005L13.58 5.83339Z" fill="#FCAF17" stroke="#292D32" stroke-width="1.3" stroke-miterlimit="10" stroke-linecap="round" stroke-linejoin="round"/>
<path d="M20.8483 5.83339H14.4083L17.5817 2.66005C18.0133 2.22839 18.725 2.22839 19.1567 2.66005L20.8133 4.31672C21.2333 4.73672 21.245 5.40172 20.8483 5.83339Z" fill="#FCAF17" stroke="#292D32" stroke-width="1.3" stroke-miterlimit="10" stroke-linecap="round" stroke-linejoin="round"/>
<path d="M10.4301 11.6666V17.6633C10.4301 18.5966 11.4567 19.145 12.2384 18.6433L13.3351 17.92C13.7317 17.6633 14.2334 17.6633 14.6184 17.92L15.6567 18.62C16.4267 19.1333 17.4651 18.585 17.4651 17.6516V11.6666H10.4301Z" fill="#FCAF17" stroke="#292D32" stroke-width="1.3" stroke-miterlimit="10" stroke-linecap="round" stroke-linejoin="round"/>
</svg>
